<?xml version="1.0" encoding="utf-8"?>
<!-- Generator: Adobe Illustrator 24.1.3, SVG Export Plug-In . SVG Version: 6.00 Build 0)  -->
<svg version="1.1" id="Layer_1" xmlns="http://www.w3.org/2000/svg" xmlns:xlink="http://www.w3.org/1999/xlink" x="0px" y="0px"
	 viewBox="0 0 623 464" style="enable-background:new 0 0 623 464;" xml:space="preserve">
<style type="text/css">
	.st0{fill:url(#SVGID_1_);}
	.st1{fill:url(#SVGID_2_);}
	.st2{fill:url(#SVGID_3_);}
	.st3{fill:url(#SVGID_4_);}
	.st4{fill:url(#SVGID_5_);}
	.st5{fill:url(#SVGID_6_);}
	.st6{fill:url(#SVGID_7_);}
	.st7{fill:url(#SVGID_8_);}
	.st8{fill:url(#SVGID_9_);}
	.st9{fill:url(#SVGID_10_);}
	.st10{fill:url(#SVGID_11_);}
	.st11{fill:url(#SVGID_12_);}
	.st12{fill:url(#SVGID_13_);}
	.st13{fill:url(#SVGID_14_);}
	.st14{fill:url(#SVGID_15_);}
	.st15{fill:url(#SVGID_16_);}
	.st16{fill:url(#SVGID_17_);}
	.st17{fill:url(#SVGID_18_);}
	.st18{fill:#428DFC;}
	.st19{fill:url(#SVGID_19_);}
	.st20{fill:url(#SVGID_20_);}
	.st21{opacity:0.86;fill:#FFFFFF;enable-background:new    ;}
	.st22{fill:url(#SVGID_21_);}
	.st23{fill:url(#SVGID_22_);}
	.st24{fill:#E94A47;}
	.st25{fill:url(#SVGID_23_);}
	.st26{fill:url(#SVGID_24_);}
	.st27{fill:url(#SVGID_25_);}
	.st28{fill:#23286B;}
	.st29{fill:url(#SVGID_26_);}
	.st30{fill:#FFBEB6;}
	.st31{fill:url(#SVGID_27_);}
</style>
<linearGradient id="SVGID_1_" gradientUnits="userSpaceOnUse" x1="279.588" y1="138.0525" x2="438.012" y2="138.0525" gradientTransform="matrix(1 0 0 -1 0 466)">
	<stop  offset="0" style="stop-color:#23286B"/>
	<stop  offset="1" style="stop-color:#151A4F"/>
</linearGradient>
<path class="st0" d="M438,328c0,8.1-6.5,14.6-14.6,14.6c-0.1,0-0.1,0-0.2,0H279.6v-6h144c4.8-0.2,8.6-4.3,8.3-9
	c-0.2-4.6-4.1-8.3-8.7-8.3c-0.1,0-0.2,0-0.3,0H279.6v-6.1h143.7h0.1C431.5,313.4,438,319.9,438,328z"/>
<linearGradient id="SVGID_2_" gradientUnits="userSpaceOnUse" x1="442.6814" y1="18.1233" x2="255.7234" y2="24.1383" gradientTransform="matrix(1 0 0 -1 0 466)">
	<stop  offset="0" style="stop-color:#23286B"/>
	<stop  offset="1" style="stop-color:#151A4F"/>
</linearGradient>
<path class="st1" d="M277,445.1c0,4.6,3.7,8.4,8.3,8.7h144v6H285.7h-0.1c-8.1,0-14.6-6.5-14.6-14.6c0-8.1,6.5-14.6,14.6-14.6h143.9
	v6H286.1c-0.1,0-0.2,0-0.3,0C280.9,436.4,277,440.3,277,445.1z"/>
<linearGradient id="SVGID_3_" gradientUnits="userSpaceOnUse" x1="687.4337" y1="-18.1619" x2="201.8937" y2="134.5932" gradientTransform="matrix(1 0 0 -1 0 466)">
	<stop  offset="0" style="stop-color:#A1C3FC"/>
	<stop  offset="0.6955" style="stop-color:#81AEF2"/>
	<stop  offset="1" style="stop-color:#78A9EF"/>
</linearGradient>
<path class="st2" d="M298.5,386.7c0,4.6,3.7,8.4,8.3,8.7h143.2v5.9H306.4c-8.1-0.1-14.6-6.8-14.5-14.9c0.1-8,6.5-14.4,14.5-14.5
	h143.8v6.2H307.6c-0.1,0-0.2,0-0.3,0C302.4,378.1,298.5,381.9,298.5,386.7z"/>
<linearGradient id="SVGID_4_" gradientUnits="userSpaceOnUse" x1="421.6451" y1="77.7103" x2="179.8541" y2="203.5403" gradientTransform="matrix(1 0 0 -1 0 466)">
	<stop  offset="0" style="stop-color:#A1C3FC"/>
	<stop  offset="0.6955" style="stop-color:#81AEF2"/>
	<stop  offset="1" style="stop-color:#78A9EF"/>
</linearGradient>
<path class="st3" d="M355,356.6c0,0.2,0,0.4,0,0.6c0,4.6,3.7,8.4,8.3,8.7h0.3h71.8v6H291.6c-8.1,0-14.6-6.6-14.6-14.7
	c0-8.1,6.5-14.6,14.6-14.6h143.7v6h-71.4c-0.1,0-0.2,0-0.3,0c-0.2,0-0.3,0-0.6,0c-4.1,0.2-7.3,3.4-8,7.3
	C355,356.1,355,356.4,355,356.6z"/>
<linearGradient id="SVGID_5_" gradientUnits="userSpaceOnUse" x1="279.814" y1="196.5615" x2="429.461" y2="196.5615" gradientTransform="matrix(1 0 0 -1 0 466)">
	<stop  offset="0.1291" style="stop-color:#428DFC"/>
	<stop  offset="0.9987" style="stop-color:#1D72D8"/>
</linearGradient>
<path class="st4" d="M369.4,268.6c0,0.3,0,0.6,0,0.9c0,4.6,3.7,8.4,8.3,8.7h51.8v6h-135c-8.1,0-14.6-6.6-14.6-14.7
	c0-8.1,6.5-14.5,14.6-14.6h134.9v6h-51.1c-0.1,0-0.2,0-0.3,0c-0.1,0-0.3,0-0.5,0c-4,0.2-7.5,3.3-8.1,7.3
	C369.4,268.3,369.4,268.5,369.4,268.6z"/>
<linearGradient id="SVGID_6_" gradientUnits="userSpaceOnUse" x1="305.527" y1="50.234" x2="464.063" y2="50.234" gradientTransform="matrix(1 0 0 -1 0 466)">
	<stop  offset="0.1291" style="stop-color:#428DFC"/>
	<stop  offset="0.9987" style="stop-color:#1D72D8"/>
</linearGradient>
<path class="st5" d="M451.1,415.8c0,8.1-6.5,14.6-14.6,14.6c0,0-0.1,0-0.2,0H292.5v-6H371c4.6-0.2,8.3-4.1,8.3-8.7
	c0-0.2,0-0.5,0-0.6c-0.3-4.3-3.7-7.8-8.1-8.1c-0.2,0-0.3,0-0.6,0c-0.1,0-0.2,0-0.3,0h-77.6v-6h143.7c0,0,0.1,0,0.2,0
	C444.4,401.1,451.1,407.7,451.1,415.8z"/>
<linearGradient id="SVGID_7_" gradientUnits="userSpaceOnUse" x1="280.101" y1="167.2502" x2="470.75" y2="167.2502" gradientTransform="matrix(1 0 0 -1 0 466)">
	<stop  offset="0" style="stop-color:#A1C3FC"/>
	<stop  offset="0.6955" style="stop-color:#81AEF2"/>
	<stop  offset="0.7528" style="stop-color:#7FADF1"/>
	<stop  offset="1" style="stop-color:#78A9EF"/>
</linearGradient>
<path class="st6" d="M447.2,298.8c0,8.1-6.5,14.6-14.6,14.6h-0.2H288.6v-6h143.2c4.8-0.2,8.6-4.3,8.3-9c-0.2-4.6-4.1-8.3-8.7-8.3
	c-0.1,0-0.2,0-0.3,0H288.6v-6h143.7h0.2C440.6,284,447.2,290.6,447.2,298.8z"/>
<linearGradient id="SVGID_8_" gradientUnits="userSpaceOnUse" x1="320.648" y1="50.233" x2="401.547" y2="50.233" gradientTransform="matrix(1 0 0 -1 0 466)">
	<stop  offset="8.983001e-02" style="stop-color:#EEEEEE"/>
	<stop  offset="0.8178" style="stop-color:#D6D7D8"/>
</linearGradient>
<path class="st7" d="M379.2,415.8c0,4.6-3.7,8.4-8.3,8.7h-72.6v-17.3h72.8c4.3,0.3,7.8,3.7,8.1,8.1
	C379.2,415.3,379.2,415.5,379.2,415.8z"/>
<linearGradient id="SVGID_9_" gradientUnits="userSpaceOnUse" x1="290.9246" y1="166.0883" x2="442.6925" y2="168.5122" gradientTransform="matrix(1 0 0 -1 0 466)">
	<stop  offset="8.983001e-02" style="stop-color:#EEEEEE"/>
	<stop  offset="0.8178" style="stop-color:#D6D7D8"/>
</linearGradient>
<path class="st8" d="M440.3,298.7c0.1-4.6-3.6-8.6-8.2-8.7c-0.1,0-0.2,0-0.3,0H295.1v17.3h136.8h0.3
	C436.9,307.1,440.3,303.3,440.3,298.7z"/>
<linearGradient id="SVGID_10_" gradientUnits="userSpaceOnUse" x1="285.326" y1="137.996" x2="431.8257" y2="137.996" gradientTransform="matrix(1 0 0 -1 0 466)">
	<stop  offset="8.983001e-02" style="stop-color:#EEEEEE"/>
	<stop  offset="0.8178" style="stop-color:#D6D7D8"/>
</linearGradient>
<path class="st9" d="M431.8,328c0.1-4.7-3.6-8.6-8.3-8.7c-0.1,0-0.2,0-0.3,0H285.3v17.3h138.2h0.3
	C428.4,336.3,431.9,332.5,431.8,328z"/>
<linearGradient id="SVGID_11_" gradientUnits="userSpaceOnUse" x1="434.2241" y1="106.8297" x2="328.5311" y2="112.1627" gradientTransform="matrix(1 0 0 -1 0 466)">
	<stop  offset="8.983001e-02" style="stop-color:#EEEEEE"/>
	<stop  offset="0.8178" style="stop-color:#D6D7D8"/>
</linearGradient>
<path class="st10" d="M429.5,348.6v17.3h-66.3c-4.6-0.2-8.3-4.1-8.3-8.7c0-0.2,0-0.4,0-0.6c0-0.2,0-0.5,0.1-0.7
	c0.6-4.1,3.9-7.1,8-7.3h66.5V348.6z"/>
<linearGradient id="SVGID_12_" gradientUnits="userSpaceOnUse" x1="450.903" y1="20.6468" x2="220.099" y2="21.1318" gradientTransform="matrix(1 0 0 -1 0 466)">
	<stop  offset="8.983001e-02" style="stop-color:#EEEEEE"/>
	<stop  offset="0.8178" style="stop-color:#D6D7D8"/>
</linearGradient>
<path class="st11" d="M424.4,436.5H285.8c-0.1,0-0.2,0-0.3,0c-4.8,0.2-8.6,4.2-8.3,9c0.1,4.4,3.6,8,8,8.3h0.3h139V436.5z"/>
<linearGradient id="SVGID_13_" gradientUnits="userSpaceOnUse" x1="441.964" y1="189.8521" x2="372.6419" y2="201.0011" gradientTransform="matrix(1 0 0 -1 0 466)">
	<stop  offset="8.983001e-02" style="stop-color:#EEEEEE"/>
	<stop  offset="0.8178" style="stop-color:#D6D7D8"/>
</linearGradient>
<path class="st12" d="M423.9,260.8v17.3h-46.4c-4.6-0.2-8.3-4-8.3-8.7c0-0.3,0-0.6,0-0.9c0-0.1,0-0.3,0-0.5c0.7-4,4-7.1,8.1-7.3
	H423.9z"/>
<linearGradient id="SVGID_14_" gradientUnits="userSpaceOnUse" x1="436.8357" y1="78.3043" x2="248.7007" y2="81.2133" gradientTransform="matrix(1 0 0 -1 0 466)">
	<stop  offset="8.983001e-02" style="stop-color:#EEEEEE"/>
	<stop  offset="0.8178" style="stop-color:#D6D7D8"/>
</linearGradient>
<path class="st13" d="M443.3,378.1H307c-0.1,0-0.2,0-0.3,0c-4.8,0.2-8.4,4.4-8.2,9.1c0.2,4.3,3.6,7.8,7.9,8.2h0.3h136.5v-17.3H443.3
	z"/>
<linearGradient id="SVGID_15_" gradientUnits="userSpaceOnUse" x1="63.9715" y1="98.136" x2="166.8757" y2="100.3149" gradientTransform="matrix(1 0 0 -1 0 466)">
	<stop  offset="0" style="stop-color:#23286B"/>
	<stop  offset="1" style="stop-color:#151A4F"/>
</linearGradient>
<path class="st14" d="M166.7,358.9l-15.6,44.4l-87.9-71.1c0,0,11.6-5.1,31.8,0.8c20.3,5.9,45,4.1,45,4.1L166.7,358.9z"/>
<linearGradient id="SVGID_16_" gradientUnits="userSpaceOnUse" x1="112.1295" y1="59.3175" x2="215.0338" y2="61.4964" gradientTransform="matrix(1 0 0 -1 0 466)">
	<stop  offset="0" style="stop-color:#23286B"/>
	<stop  offset="1" style="stop-color:#151A4F"/>
</linearGradient>
<path class="st15" d="M214.9,397.8l-15.6,44.4l-87.9-71.1c0,0,11.6-5.1,31.8,0.8c20.3,5.9,45,4,45,4L214.9,397.8z"/>
<linearGradient id="SVGID_17_" gradientUnits="userSpaceOnUse" x1="613.8502" y1="147.1935" x2="346.0551" y2="-136.9305" gradientTransform="matrix(1 0 0 -1 0 466)">
	<stop  offset="0" style="stop-color:#23286B"/>
	<stop  offset="1" style="stop-color:#151A4F"/>
</linearGradient>
<path class="st16" d="M547.5,459.8c39,0,70.5-31.6,70.5-70.5c0-39-31.6-70.5-70.5-70.5c-39,0-70.5,31.6-70.5,70.5
	C476.9,428.2,508.5,459.8,547.5,459.8z"/>
<linearGradient id="SVGID_18_" gradientUnits="userSpaceOnUse" x1="5.1598" y1="84.3265" x2="175.173" y2="84.3265" gradientTransform="matrix(1 0 0 -1 0 466)">
	<stop  offset="0" style="stop-color:#A1C3FC"/>
	<stop  offset="0.6955" style="stop-color:#81AEF2"/>
	<stop  offset="1" style="stop-color:#78A9EF"/>
</linearGradient>
<path class="st17" d="M100,459.8c-52.3,0-94.7-42.4-94.9-94.7c0-21.6,7.3-42.5,20.8-59.3l1.7-2.1l147.5,119.5l-1.7,2
	C155.5,447,128.5,459.8,100,459.8z M28.6,311.1c-29.7,39.5-21.8,95.6,17.8,125.3c37.5,28.2,90.5,22.7,121.3-12.7L28.6,311.1z"/>
<path class="st18" d="M443.2,366.6L454,194.4l152.1,81.2L443.2,366.6z M459.1,203.6l-9.6,153.1l144.9-80.9L459.1,203.6z"/>
<linearGradient id="SVGID_19_" gradientUnits="userSpaceOnUse" x1="95.8448" y1="260.3711" x2="263.2048" y2="189.6421" gradientTransform="matrix(1 0 0 -1 0 466)">
	<stop  offset="8.983001e-02" style="stop-color:#EEEEEE"/>
	<stop  offset="0.8178" style="stop-color:#D6D7D8"/>
</linearGradient>
<path class="st19" d="M426.3,214.4C426.3,214.5,426.2,214.5,426.3,214.4c-0.1,0.2-0.2,0.3-0.2,0.5c-0.1,0.2-0.2,0.4-0.3,0.7
	c-0.1,0.1-0.2,0.3-0.2,0.5c-0.2,0.3-0.3,0.6-0.6,0.9c-0.2,0.4-0.6,0.8-0.9,1.2c-0.2,0.3-0.6,0.8-0.9,1.2c-0.3,0.6-0.8,1.1-1.4,1.7
	c-0.2,0.2-0.5,0.6-0.7,0.8c-1.2,1.7-2.8,3.4-4.6,5.3c-0.4,0.5-0.9,0.9-1.4,1.4c-0.2,0.1-0.3,0.3-0.6,0.6c-0.3,0.3-0.7,0.7-1,1
	c-0.3,0.3-0.7,0.7-1,1c-0.2,0.2-0.5,0.4-0.7,0.6c-0.9,0.8-1.8,1.6-2.8,2.4c-0.3,0.3-0.8,0.6-1.1,0.9c-1.2,1-2.6,1.9-3.9,2.9
	c-0.5,0.3-0.9,0.7-1.5,1c-1.6,1-3.3,2.1-5,3c-0.3,0.2-0.8,0.5-1.1,0.7c-5.2,2.8-10.6,5.2-16.2,7c-0.6,0.1-1,0.3-1.6,0.4
	c-0.2,0.1-0.3,0.1-0.6,0.1c-0.5,0.1-1,0.3-1.5,0.5c-0.6,0.1-1,0.3-1.5,0.4c-0.6,0.1-1.1,0.3-1.7,0.5c-0.2,0.1-0.5,0.1-0.7,0.2
	c-0.7,0.1-1.3,0.3-2,0.4c-2.4,0.6-4.7,1-7.3,1.4c-1.5,0.2-2.9,0.5-4.5,0.6c-0.6,0.1-1,0.1-1.6,0.1c-0.6,0.1-1.1,0.1-1.8,0.1
	c-0.9,0.1-1.8,0.1-2.7,0.2c-0.8,0-1.5,0.1-2.3,0.1c-1.1,0-2.3,0.1-3.4,0.1c-1,0-1.9,0-2.9,0h-1c-0.6,0-1,0-1.6,0
	c-21.3-1.4-41.1-4.5-50.9-2.9c-22.1,3.5-29.6,31.4-40.6,47c-11,15.6-27.2,14.5-29,37.1c-1.7,22.6-33.1,39.7-33.1,39.7l-48.2-38.8
	c0,0,73.6-83.9,98-111.8c1.6-1.8,2.9-3.3,4-4.6c16.8-18.2,88-32,109-35.6C375,212.1,406.5,215.5,426.3,214.4z"/>
<linearGradient id="SVGID_20_" gradientUnits="userSpaceOnUse" x1="257.4175" y1="165.5585" x2="439.7206" y2="340.8885" gradientTransform="matrix(1 0 0 -1 0 466)">
	<stop  offset="8.983001e-02" style="stop-color:#EEEEEE"/>
	<stop  offset="0.8178" style="stop-color:#D6D7D8"/>
</linearGradient>
<path class="st20" d="M426.3,214.4C426.3,214.5,426.3,214.5,426.3,214.4c-0.1,0.2-0.2,0.3-0.3,0.5c-0.1,0.2-0.2,0.4-0.3,0.7
	c-0.1,0.1-0.2,0.3-0.2,0.5c-0.2,0.3-0.3,0.6-0.6,0.9c-0.2,0.4-0.6,0.8-0.9,1.2c-0.2,0.3-0.6,0.8-0.9,1.2c-0.3,0.6-0.8,1.1-1.4,1.7
	c-0.2,0.2-0.5,0.6-0.7,0.8c-1.2,1.7-2.8,3.4-4.6,5.3c-0.4,0.5-0.9,0.9-1.3,1.4c-0.2,0.1-0.3,0.3-0.6,0.6c-0.3,0.3-0.7,0.7-1,1
	c-0.3,0.3-0.7,0.7-1,1c-0.2,0.2-0.5,0.4-0.7,0.6c-0.9,0.8-1.8,1.6-2.8,2.4c-0.3,0.3-0.8,0.6-1.1,0.9c-1.2,1-2.6,1.9-3.9,2.9
	c-0.5,0.3-0.9,0.7-1.5,1c-1.6,1-3.3,2.1-5,3c-0.3,0.2-0.8,0.4-1.1,0.7c-5.2,2.8-10.6,5.2-16.2,7c-0.6,0.1-1,0.3-1.6,0.4
	c-0.2,0.1-0.3,0.1-0.6,0.1c-0.5,0.1-1,0.3-1.5,0.5c-0.6,0.1-1,0.3-1.5,0.4c-0.6,0.1-1.1,0.3-1.7,0.5c-0.2,0.1-0.5,0.1-0.7,0.2
	c-0.7,0.1-1.4,0.3-2,0.5c-2.4,0.6-4.7,1-7.3,1.4c-1.5,0.2-2.9,0.5-4.5,0.6c-0.6,0.1-1,0.1-1.6,0.1c-0.6,0.1-1.1,0.1-1.8,0.1
	c-0.9,0.1-1.8,0.1-2.7,0.2c-0.8,0-1.5,0.1-2.3,0.1c-1.1,0-2.3,0.1-3.4,0.1c-1,0-1.9,0-2.9,0h-1c-0.6,0-1,0-1.6,0
	c-49.6-0.2-45.7,7.7-52,21.5c-6.4,14-1.7,28.5-17.4,45.9c-15.6,17.4-11.6,35.8-14.5,53.4c-1.8,10.6-14.6,39.4-23.9,43.4l-45.8-43.2
	c0,0,0.7-1.8,1.8-5.1c8.3-23,35.8-118.9,43.4-136.3c1.4-3.1,2.9-6.3,4.6-9.3c6.8-11.9,13.7-15.4,28.5-19.7
	c13.6-3.9,60.2-17.7,81.7-24c1,1.2,1.9,2.4,2.9,3.5C375,212.1,406.5,215.5,426.3,214.4z"/>
<path class="st21" d="M379.8,216.7c0-0.1-0.1-0.2-0.2-0.2c-0.1,0-0.2,0.1-0.2,0.2c0,0.1,0.1,0.2,0.2,0.2
	C379.7,216.9,379.8,216.8,379.8,216.7z M380.1,211c0-0.1-0.1-0.2-0.2-0.2c-0.1,0-0.2,0.1-0.2,0.2c0,0.1,0.1,0.2,0.2,0.2
	C380,211.2,380.1,211.1,380.1,211z M357.8,206.5c-0.1-0.1-0.2-0.1-0.3,0c-0.1,0.1-0.1,0.2,0,0.3c0.1,0.1,0.2,0.1,0.3,0
	C357.9,206.7,357.9,206.6,357.8,206.5z M391.2,211.5c0-0.1-0.2-0.2-0.3-0.1c-0.1,0.1-0.2,0.2-0.1,0.3c0.1,0.1,0.2,0.2,0.3,0.1
	C391.2,211.9,391.2,211.8,391.2,211.5z M369,210.9c-0.1-0.1-0.2,0-0.3,0.1c-0.1,0.1,0,0.2,0.1,0.3c0.1,0.1,0.2,0,0.3-0.1
	C369.3,211.1,369.2,211,369,210.9z M371.4,205.7c-0.1,0-0.2,0-0.3,0.1c0,0.1,0,0.2,0.1,0.3c0.1,0.1,0.2,0,0.3-0.1
	C371.6,205.8,371.5,205.7,371.4,205.7z M407.9,230.7c-0.1-0.2-0.3-0.3-0.6-0.2c-0.2,0.1-0.3,0.3-0.2,0.6c0.1,0.2,0.3,0.3,0.6,0.2
	C407.9,231.1,407.9,230.9,407.9,230.7z M403.2,220.7c-0.1-0.2-0.3-0.3-0.6-0.2c-0.2,0.1-0.3,0.3-0.2,0.6c0.1,0.2,0.3,0.3,0.6,0.2
	C403.2,221.2,403.4,221,403.2,220.7z M366.1,241.9c-0.2-0.1-0.5,0-0.6,0.2s0,0.5,0.2,0.6c0.2,0.1,0.5,0,0.6-0.2
	C366.5,242.3,366.3,242,366.1,241.9z M369.9,231.7c-0.2-0.1-0.4,0-0.6,0.2c-0.1,0.2,0,0.5,0.2,0.6c0.2,0.1,0.5,0,0.6-0.2
	C370.3,232,370.2,231.8,369.9,231.7z M373.9,221.4c-0.2-0.1-0.5,0-0.6,0.2c-0.1,0.2,0,0.4,0.2,0.6s0.4,0,0.6-0.2
	C374.2,221.8,374.1,221.6,373.9,221.4z M377.6,211.2c-0.2-0.1-0.4,0-0.6,0.2c-0.1,0.2,0,0.5,0.2,0.6c0.2,0.1,0.5,0,0.6-0.2
	C377.9,211.5,377.9,211.3,377.6,211.2C377.7,211.2,377.6,211.2,377.6,211.2z M419.9,215.6c-0.2-0.2-0.5-0.1-0.7,0
	c-0.2,0.2-0.1,0.5,0,0.7c0.1,0.2,0.5,0.1,0.7,0C420.1,216.2,420.1,215.7,419.9,215.6z M390.2,240.9c0-0.2-0.2-0.5-0.4-0.5
	s-0.5,0.2-0.5,0.5s0.2,0.4,0.5,0.4S390.2,241.3,390.2,240.9z M389.7,230c0-0.2-0.2-0.5-0.5-0.5s-0.4,0.2-0.4,0.5s0.2,0.4,0.4,0.4
	C389.6,230.5,389.7,230.3,389.7,230z M389.4,219.1c0-0.2-0.2-0.5-0.5-0.5c-0.2,0-0.5,0.2-0.5,0.5c0,0.2,0.2,0.4,0.5,0.4
	C389.2,219.6,389.4,219.4,389.4,219.1z M350.8,226.3c-0.2-0.1-0.5-0.1-0.6,0c-0.1,0.2-0.1,0.5,0,0.7c0.2,0.2,0.5,0.1,0.7,0
	C350.9,226.7,350.9,226.5,350.8,226.3z M358.2,218.3c-0.2-0.2-0.5-0.2-0.7,0c-0.2,0.2-0.1,0.4,0,0.7c0.2,0.1,0.4,0.1,0.7,0
	C358.5,218.7,358.5,218.5,358.2,218.3z M365.7,210.3c-0.2-0.2-0.5-0.1-0.7,0c-0.2,0.2-0.1,0.5,0,0.7c0.2,0.1,0.4,0.1,0.6,0
	C365.9,210.8,365.9,210.5,365.7,210.3z M399.5,230.7c0-0.2-0.2-0.3-0.5-0.3s-0.3,0.2-0.3,0.4s0.2,0.3,0.5,0.3
	C399.3,231.1,399.5,230.9,399.5,230.7z M398.2,221c0-0.1,0-0.1-0.1-0.2c-0.1-0.1-0.2-0.1-0.3-0.1c-0.2,0-0.3,0.2-0.3,0.5
	s0.2,0.3,0.4,0.3c0.1,0,0.2-0.1,0.2-0.1C398.2,221.2,398.3,221.1,398.2,221z M361,229.3c-0.2-0.1-0.4-0.1-0.6,0.1
	c-0.1,0.1-0.1,0.5,0,0.6c0.2,0.1,0.4,0.1,0.6-0.1C361.2,229.8,361.2,229.6,361,229.3z M366.9,221.7c-0.2-0.1-0.5-0.1-0.6,0.1
	c-0.1,0.1-0.1,0.5,0,0.6c0.2,0.1,0.5,0.1,0.6-0.1C367.1,222,367.1,221.8,366.9,221.7z M372.9,213.9c-0.2-0.1-0.5-0.1-0.6,0.1
	c-0.1,0.1-0.1,0.4,0,0.6c0.2,0.1,0.5,0.1,0.6-0.1C373.1,214.4,373.1,214,372.9,213.9z M378.8,206.3c-0.2-0.1-0.5-0.1-0.6,0.1
	c-0.1,0.2-0.1,0.4,0.1,0.6c0.2,0.1,0.5,0.1,0.6-0.1C379.1,206.6,378.9,206.4,378.8,206.3z M413.9,220.7c-0.1-0.2-0.3-0.2-0.6-0.1
	c-0.2,0.1-0.2,0.3-0.1,0.6c0.1,0.2,0.3,0.2,0.6,0.1C414,221.1,414,220.9,413.9,220.7z M381.6,234.1c-0.2,0-0.4,0.1-0.4,0.3
	s0.1,0.4,0.3,0.4c0.2,0.1,0.4-0.1,0.4-0.2C382,234.4,381.9,234.2,381.6,234.1z M384.2,224.7c-0.2,0-0.5,0.1-0.5,0.3
	c0,0.2,0.1,0.5,0.3,0.5c0.2,0.1,0.5,0,0.5-0.2C384.6,224.9,384.3,224.7,384.2,224.7z M386.7,215.3c-0.2-0.1-0.5,0-0.5,0.2
	s0.1,0.5,0.3,0.5c0.2,0,0.4-0.1,0.4-0.3C387,215.6,386.9,215.4,386.7,215.3z M352.2,211.8c-0.1-0.2-0.3-0.2-0.6-0.1
	c-0.2,0.1-0.2,0.3-0.1,0.6c0.1,0.2,0.3,0.2,0.6,0.1C352.2,212.2,352.3,212,352.2,211.8z M360.6,206.9c-0.1-0.2-0.3-0.2-0.6-0.1
	c-0.2,0.1-0.2,0.3-0.1,0.6c0.1,0.2,0.3,0.2,0.6,0.1C360.6,207.4,360.7,207.2,360.6,206.9z M410,218.3c0-0.1-0.2-0.2-0.3-0.1
	c-0.1,0-0.2,0.2-0.1,0.3c0.1,0.1,0.2,0.2,0.3,0.1C410,218.5,410.1,218.4,410,218.3z M385.8,216.4c-0.1-0.1-0.2,0-0.3,0.1
	c-0.1,0.1,0,0.2,0.1,0.3c0.1,0.1,0.2,0,0.3-0.1C385.9,216.6,385.9,216.5,385.8,216.4z M388.3,211.2c-0.1-0.1-0.2,0-0.3,0.1
	c-0.1,0.1,0,0.2,0.1,0.3c0.1,0.1,0.2,0,0.3-0.1C388.5,211.4,388.5,211.3,388.3,211.2z M398.3,216.8c0-0.1-0.1-0.2-0.2-0.2
	c-0.1,0-0.2,0.1-0.2,0.2c0,0.1,0.1,0.2,0.2,0.2C398.2,217.1,398.3,216.9,398.3,216.8z M378.5,206.9c-0.1-0.1-0.2-0.1-0.3,0
	c-0.1,0.1-0.1,0.2,0,0.3c0.1,0.1,0.2,0.1,0.3,0C378.5,207.2,378.5,207,378.5,206.9z M411.5,225.2c0-0.1-0.1-0.2-0.3-0.2
	c-0.1,0-0.2,0.1-0.2,0.3c0,0.1,0.1,0.2,0.3,0.2C411.3,225.4,411.5,225.3,411.5,225.2z M410.6,218.6c0-0.1-0.1-0.2-0.3-0.2
	c-0.1,0-0.2,0.1-0.2,0.3c0,0.1,0.1,0.2,0.3,0.2C410.4,219,410.6,218.7,410.6,218.6z M384.7,218.1c-0.1-0.1-0.3,0-0.3,0.1
	c-0.1,0.1-0.1,0.3,0,0.3c0.1,0.1,0.2,0.1,0.3,0C384.8,218.3,384.8,218.2,384.7,218.1z M388.6,212.8c-0.1-0.1-0.3,0-0.3,0.1
	c-0.1,0.1-0.1,0.3,0,0.3c0.1,0.1,0.3,0.1,0.3,0C388.7,213.1,388.7,212.9,388.6,212.8z M423.2,217.2c-0.1-0.1-0.2-0.2-0.3-0.1
	c-0.1,0.1-0.2,0.2-0.1,0.3c0.1,0.1,0.2,0.2,0.3,0.1C423.2,217.5,423.2,217.3,423.2,217.2z M398.3,221.1c0-0.1,0-0.3-0.2-0.3
	c-0.1,0-0.2,0.1-0.3,0.2c0,0.1,0,0.3,0.2,0.3h0.1C398.2,221.3,398.3,221.2,398.3,221.1z M399.8,214.5c-0.1,0-0.3,0.1-0.3,0.2
	c0,0.1,0.1,0.3,0.2,0.3c0.1,0,0.3,0,0.3-0.2S400,214.5,399.8,214.5z M378.2,205.9c-0.1-0.1-0.2-0.1-0.3-0.1
	c-0.1,0.1-0.1,0.2-0.1,0.3c0.1,0.1,0.2,0.2,0.3,0.1C378.2,206.3,378.3,206.1,378.2,205.9z M426.8,214.8c-0.1-0.2-0.5-0.3-0.7-0.2
	c-0.2,0.1-0.3,0.5-0.2,0.7c0.1,0.2,0.5,0.3,0.7,0.2S426.9,215,426.8,214.8z M395.9,249.7c-0.2-0.1-0.6,0.1-0.6,0.3
	c-0.1,0.2,0.1,0.5,0.3,0.6c0.2,0.1,0.5-0.1,0.6-0.3C396.4,250,396.2,249.8,395.9,249.7z M399,238.9c-0.2-0.1-0.4,0.1-0.6,0.3
	c-0.1,0.2,0.1,0.5,0.3,0.6c0.2,0.1,0.4-0.1,0.6-0.3S399.2,238.9,399,238.9z M402,228c-0.2-0.1-0.5,0.1-0.6,0.3
	c-0.1,0.2,0.1,0.5,0.3,0.6c0.2,0.1,0.6-0.1,0.6-0.3C402.5,228.3,402.2,228.1,402,228z M405,217.2c-0.2-0.1-0.5,0.1-0.6,0.3
	c-0.1,0.2,0.1,0.5,0.3,0.6c0.2,0.1,0.5-0.1,0.6-0.3C405.5,217.5,405.3,217.3,405,217.2z M359,220.7c-0.1-0.2-0.4-0.3-0.7-0.2
	c-0.2,0.1-0.3,0.4-0.2,0.7c0.1,0.2,0.5,0.3,0.7,0.2C359,221.1,359.1,220.9,359,220.7z M368.8,215.1c-0.1-0.2-0.4-0.3-0.7-0.2
	c-0.2,0.1-0.3,0.4-0.2,0.7c0.1,0.2,0.5,0.3,0.7,0.2C368.8,215.6,368.9,215.4,368.8,215.1z M378.6,209.6c-0.1-0.2-0.3-0.3-0.6-0.2
	c-0.2,0.1-0.3,0.4-0.2,0.7c0.1,0.2,0.5,0.3,0.7,0.2C378.6,210.2,378.7,209.9,378.6,209.6z M417.5,224.4c0-0.2-0.2-0.5-0.6-0.5
	c-0.2,0-0.5,0.2-0.5,0.6c0,0.2,0.2,0.5,0.6,0.5C417.4,224.9,417.5,224.7,417.5,224.4z M378.5,235.2c-0.2-0.1-0.4-0.1-0.7,0.1
	c-0.1,0.2-0.1,0.5,0.1,0.7c0.2,0.1,0.4,0.1,0.7-0.1C378.7,235.6,378.7,235.3,378.5,235.2z M385.5,226.3c-0.2-0.1-0.5-0.1-0.7,0.1
	c-0.1,0.2-0.1,0.5,0.1,0.7c0.2,0.1,0.5,0.1,0.7-0.1C385.7,226.7,385.7,226.5,385.5,226.3z M392.3,217.5c-0.2-0.1-0.4-0.1-0.7,0.1
	c-0.1,0.2-0.1,0.5,0.1,0.7c0.2,0.1,0.5,0.1,0.7-0.1C392.7,218,392.6,217.6,392.3,217.5z M423.8,219.2c0-0.2-0.2-0.5-0.4-0.3
	c-0.2,0-0.5,0.2-0.5,0.6c0,0.2,0.3,0.4,0.6,0.3C423.7,219.8,423.8,219.5,423.8,219.2z M383.1,241.3c-0.2-0.1-0.5-0.1-0.7,0.1
	c-0.1,0.2-0.1,0.5,0.1,0.7c0.2,0.1,0.5,0.1,0.7-0.1S383.3,241.5,383.1,241.3z M389.7,232.3c-0.2-0.1-0.6-0.1-0.7,0.1
	c-0.1,0.2-0.1,0.4,0.1,0.7c0.2,0.1,0.5,0.1,0.7-0.1C390,232.7,389.9,232.4,389.7,232.3z M396.3,223.1c-0.2-0.1-0.5-0.1-0.7,0.1
	c-0.2,0.2-0.1,0.5,0.1,0.7c0.2,0.1,0.5,0.1,0.7-0.1C396.5,223.6,396.5,223.3,396.3,223.1z M402.8,214c-0.2-0.1-0.5-0.1-0.7,0.1
	c-0.1,0.2-0.1,0.5,0.1,0.7c0.2,0.1,0.5,0.1,0.7-0.1C403,214.5,403,214.1,402.8,214z M411.8,223.6c-0.2,0-0.5,0.1-0.6,0.3
	c-0.1,0.2,0.1,0.5,0.3,0.6c0.2,0.1,0.4-0.1,0.6-0.3C412.2,223.9,412.1,223.7,411.8,223.6C411.9,223.6,411.9,223.6,411.8,223.6z
	 M372,220.9c-0.1-0.2-0.4-0.2-0.7-0.1c-0.2,0.1-0.3,0.5-0.1,0.7c0.1,0.2,0.5,0.3,0.7,0.1C372.1,221.3,372.1,221.1,372,220.9z
	 M381.5,214.9c-0.1-0.2-0.5-0.2-0.7-0.1c-0.2,0.1-0.3,0.4-0.1,0.7c0.1,0.2,0.5,0.3,0.7,0.1C381.6,215.5,381.6,215.1,381.5,214.9z
	 M391.1,223.8c-0.1-0.1-0.3-0.1-0.5,0c-0.1,0.1-0.1,0.3,0,0.4c0.1,0.1,0.3,0.1,0.5,0C391.2,224.1,391.2,223.9,391.1,223.8z
	 M397.4,218.1c-0.1-0.1-0.3-0.1-0.5,0c-0.1,0.1-0.1,0.3,0,0.4c0.1,0.1,0.3,0.1,0.5,0C397.5,218.4,397.5,218.2,397.4,218.1z
	 M407.5,230.5c-0.2-0.1-0.3,0-0.4,0.1c-0.1,0.2,0,0.3,0.1,0.5c0.2,0.1,0.3,0,0.4-0.1C407.9,230.8,407.7,230.6,407.5,230.5
	C407.6,230.5,407.5,230.5,407.5,230.5z M411.1,222.8c-0.1-0.1-0.3,0-0.4,0.1c-0.1,0.2,0,0.3,0.1,0.5c0.2,0.1,0.3,0,0.5-0.2
	C411.5,223.1,411.3,222.9,411.1,222.8z M414.8,215.1c-0.2-0.1-0.3,0-0.5,0.2c-0.1,0.1,0,0.3,0.1,0.5c0.1,0.1,0.3,0,0.5-0.1
	C415.1,215.5,414.9,215.3,414.8,215.1z M417.3,214.6c-0.1-0.1-0.2,0-0.2,0c-0.1,0.1,0,0.2,0,0.2c0.1,0,0.2,0,0.2-0.1
	C417.4,214.8,417.4,214.7,417.3,214.6z M409.4,219c-0.1-0.1-0.2-0.2-0.5-0.1c-0.1,0.1-0.2,0.2-0.1,0.3c0.1,0.1,0.3,0.2,0.5,0.1
	C409.5,219.3,409.5,219.1,409.4,219C409.5,219,409.4,219,409.4,219z M415.8,214.8c-0.1-0.1-0.3-0.2-0.5-0.1
	c-0.1,0.1-0.2,0.2-0.1,0.5c0.1,0.1,0.2,0.2,0.5,0.1C416,215.1,416,214.9,415.8,214.8z"/>
<linearGradient id="SVGID_21_" gradientUnits="userSpaceOnUse" x1="223.571" y1="342.8345" x2="347.075" y2="342.8345" gradientTransform="matrix(1 0 0 -1 0 466)">
	<stop  offset="0" style="stop-color:#FFBEB6"/>
	<stop  offset="1" style="stop-color:#F2A19C"/>
</linearGradient>
<path class="st22" d="M347.1,155.3c-0.9,0-1.8,0-2.8,0c-8.2-0.4-24.6-3.7-41.1-8.6c-7.7-2.3-15.3-4.7-22.1-7.4
	c-0.8-0.3-1.6-0.7-2.5-1c-2.8-1.2-5.6-2.3-8.6-3c-1.7-0.4-3.3-0.8-4.7-1.1c-1.7-0.3-3.5-0.6-5.3-0.7c-0.8-0.1-1.5-0.1-2.3-0.1
	c-17.7-2.8-26.1-8.7-30.3-16.3c-0.1-0.1-0.1-0.2-0.2-0.3c-0.1-0.2-0.2-0.6-0.5-0.8c-2.7-5.5-3.9-11.7-3.4-17.8
	c0.3-3.2,1.1-5.5,2.1-6.3c0.2-0.2,0.4-0.3,0.7-0.4c1-0.1,2,0.2,2.8,0.8c0.1,0.1,0.2,0.1,0.3,0.2c5.6,3.4,14.6,14.2,19,16.5l0.1,0.1
	c3.9,2,2.9-0.9,0-5.7c-0.9-1.5-2-3.1-3.2-4.8c-4.9-7.2-3.8-12.4,9.1,0.2c0.6,0.6,1.1,1.1,1.7,1.7c1,1,2,2,3,2.9l0.1,0.1
	c2.3,2.5,5,5.4,7,8.1c4.7,6.1,15.4,8.4,19.8,9.3c13.1,2.8,31.8,1.5,31.8,1.5s7.9-0.2,16.3-0.8l10.9,29.6L347.1,155.3z"/>
<linearGradient id="SVGID_22_" gradientUnits="userSpaceOnUse" x1="207.0899" y1="458.1331" x2="234.4099" y2="341.4671" gradientTransform="matrix(1 0 0 -1 0 466)">
	<stop  offset="0.122" style="stop-color:#E94A47"/>
	<stop  offset="1" style="stop-color:#C63030"/>
</linearGradient>
<path class="st23" d="M270.8,148.2l-45.1,29l-30.4-87.9l45.1-29L270.8,148.2z"/>
<path class="st24" d="M287.6,176.9h-61.7L195.5,89h61.7L287.6,176.9z"/>
<linearGradient id="SVGID_23_" gradientUnits="userSpaceOnUse" x1="209.5027" y1="304.0215" x2="323.469" y2="304.0215" gradientTransform="matrix(1 0 0 -1 0 466)">
	<stop  offset="0" style="stop-color:#FFBEB6"/>
	<stop  offset="1" style="stop-color:#F2A19C"/>
</linearGradient>
<path class="st25" d="M322.6,197.9l0.9,4.6c-0.9-0.1-1.8-0.2-2.7-0.4c-8-1.7-23.9-7.4-39.4-14.6c-7.9-3.6-15.5-7.7-23-12
	c-2.6-1.6-5.3-3-8-4.3c-3.7-1.7-7.8-2.9-11.8-3.7c-26.4-8.4-29.8-20.5-29-35.2c0.9-15.3,5.2-11.8,12.8-5.1
	c7.7,6.8,16.5,14.1,21.8,13.7c5.3-0.3,2.4-8.8,6-14.7c3.6-6,6.9-3.3,6.3-0.2c-1,6.6-1.4,13.3-1,19.9c0.5,7.2,0.6,8.6,13.1,13.3
	c12.5,4.7,31.3,6.2,31.3,6.2s7.9,0.9,16.2,1.7L322.6,197.9z"/>
<linearGradient id="SVGID_24_" gradientUnits="userSpaceOnUse" x1="320.5687" y1="393.3784" x2="382.7487" y2="292.3364" gradientTransform="matrix(1 0 0 -1 0 466)">
	<stop  offset="0" style="stop-color:#23286B"/>
	<stop  offset="0.432" style="stop-color:#1D225F"/>
	<stop  offset="1" style="stop-color:#151A4F"/>
</linearGradient>
<path class="st26" d="M358.2,84.6c0,0,9,37.2-46.6,37.7l6.8,44.1c0,0,20.9,11.8,33.9-2.8c12.9-14.6,41.9,1.7,48-23.7
	c6.2-25.4-3.3-49.3-26.4-68.4L358.2,84.6z"/>
<linearGradient id="SVGID_25_" gradientUnits="userSpaceOnUse" x1="423.9116" y1="356.853" x2="351.5676" y2="230.7" gradientTransform="matrix(1 0 0 -1 0 466)">
	<stop  offset="0" style="stop-color:#23286B"/>
	<stop  offset="1" style="stop-color:#151A4F"/>
</linearGradient>
<path class="st27" d="M373.9,71.4c0,0,63.2,42.4,71.1,140.2c0,0-61.5,17.6-98.9-32.7c0,0,23.2-46.2,12.2-94.3L373.9,71.4z"/>
<path class="st28" d="M358.2,84.6c0,0,3.3,32.4-3.9,53.8c-7.2,21.4-39,23.6-39,23.6l9.6,52.2c0,0,18.2,5.9,27.7-3.1
	c9.5-9,16.2-13.7,25.8-14.2c9.6-0.4,30.5-13.2,27.3-43.1c-3.1-29.9-8-57.2-31.7-82.5L358.2,84.6z"/>
<linearGradient id="SVGID_26_" gradientUnits="userSpaceOnUse" x1="373.6446" y1="370.1879" x2="360.9216" y2="399.9779" gradientTransform="matrix(1 0 0 -1 0 466)">
	<stop  offset="0" style="stop-color:#FFBEB6"/>
	<stop  offset="1" style="stop-color:#F2A19C"/>
</linearGradient>
<path class="st29" d="M352.7,66.4c0,0,4.8,11.8,5.5,18.2c0,0,12.6-0.6,15.6-13.2L362,57.1L352.7,66.4z"/>
<path class="st30" d="M364,61.1c-1.6,1.2-4.2,2.9-11.3,5.3c-16.2,5.4-22.5-8.8-22.5-8.8c-6.9,0.2-5.6-3.6-5.1-6.5
	c0.4-2.6,1.6-10,1.8-11.5c10.2,2.3,20.3-3,20.3-3s1.1,2.7,6,5c6.4,2.8,8-1.2,11.9,1.1c4.8,2.9,1,7.7-1.6,12.2
	C361.2,59,363.6,60.7,364,61.1z"/>
<linearGradient id="SVGID_27_" gradientUnits="userSpaceOnUse" x1="318.946" y1="416.567" x2="338.795" y2="423.7541" gradientTransform="matrix(1 0 0 -1 0 466)">
	<stop  offset="0.1291" style="stop-color:#428DFC"/>
	<stop  offset="0.9987" style="stop-color:#1D72D8"/>
</linearGradient>
<path class="st31" d="M323.6,49.4c0.2-0.1,0.5-0.2,0.7-0.3c1.5-1.2,2.1-3.2,1.8-5c1.3-0.3,2.8,0.7,3.9,1.5c-0.1,1.2,0.1,2.5,0.5,3.7
	c0.6,1.7,1.6,3,2.9,4.1c1.1,0.9,2.7,1.1,4.1,0.6c0.2-0.1,0.6-0.2,0.8-0.4c0.9-0.7,1.6-1.8,1.9-2.9c0.4-1.7,0.3-3.5-0.2-5.2
	c-1.2-3.6-4.4-5.7-7-4.6c-1.3,0.7-2.4,1.9-2.7,3.4c0,0.2-0.1,0.3-0.1,0.6c-1.1-1-2.6-1.6-4.2-1.5c-0.1-0.3-0.2-0.8-0.3-1.1
	c-1.1-3.2-3.8-5-6.1-4.1c-2.3,0.9-3.2,4.2-2.1,7.3C318.6,48.5,321.3,50.3,323.6,49.4z M331.2,49c-0.6-1.5-0.7-3-0.2-4.6
	c0.2-1,0.8-1.8,1.6-2.5c0.2-0.1,0.4-0.2,0.7-0.3c2.3-0.9,4.8,1,6,4.2c0.6,1.5,0.7,3,0.2,4.6c-0.2,1.2-1.1,2.3-2.3,2.8
	c-1.1,0.4-2.4,0.2-3.4-0.6C332.6,51.7,331.7,50.4,331.2,49z M318.3,45.1c-0.9-2.7-0.2-5.4,1.7-6.2c1.8-0.8,4.1,0.8,5.1,3.5
	c0.9,2.7,0.2,5.4-1.7,6.2C321.4,49.4,319.2,47.8,318.3,45.1z"/>
<path class="st28" d="M378.4,27.6c0,0-1.6-20-11.4-23c-9.8-2.9-16.1,5.3-16.1,5.3s-11.1-8.4-19.8-2.6c-8.7,5.9-5.3,16.7-5.3,16.7
	c-9.8-7.1-20.4,1-7.9,11.4c1.2,1,2.6,1.9,4.1,2.6c-6-1.8-10.7-6.3-11.3-13.6c0-0.6-0.9-0.6-0.9,0c0.8,9.7,8.4,14.7,16.9,15.3
	c10.4,2.4,20.5-3,20.5-3s1.1,2.8,6,4.9c6.4,2.8,8-1.2,11.9,1.1c4.8,2.9,1.5,7.9-1.9,10.4c-4.2,3,0.8,8.2,0.8,8.2
	c9.7-5.5,19.9-14.5,20.9-24.9C385.9,26,378.4,27.6,378.4,27.6z"/>
</svg>
